<mxfile host="app.diagrams.net" modified="2024-06-18T13:54:55.597Z" agent="Mozilla/5.0 (Windows NT 10.0; Win64; x64) AppleWebKit/537.36 (KHTML, like Gecko) Chrome/124.0.0.0 Safari/537.36" etag="3gWkzOeuLexq9eqnQ_5P" version="24.4.9" type="device">
  <diagram name="Страница — 1" id="_kUY2N4ZLPKGWOJeO3o4">
    <mxGraphModel dx="1293" dy="747" grid="1" gridSize="10" guides="1" tooltips="1" connect="1" arrows="1" fold="1" page="1" pageScale="1" pageWidth="1169" pageHeight="827" math="0" shadow="0">
      <root>
        <mxCell id="0" />
        <mxCell id="1" parent="0" />
        <mxCell id="EZLeDql6kAfV6pXtA3XM-2" value="&lt;i&gt;CalculationStrategy&lt;/i&gt;" style="swimlane;fontStyle=1;align=center;verticalAlign=top;childLayout=stackLayout;horizontal=1;startSize=26;horizontalStack=0;resizeParent=1;resizeParentMax=0;resizeLast=0;collapsible=1;marginBottom=0;whiteSpace=wrap;html=1;" parent="1" vertex="1">
          <mxGeometry x="547" y="304" width="160" height="86" as="geometry" />
        </mxCell>
        <mxCell id="EZLeDql6kAfV6pXtA3XM-4" value="" style="line;strokeWidth=1;fillColor=none;align=left;verticalAlign=middle;spacingTop=-1;spacingLeft=3;spacingRight=3;rotatable=0;labelPosition=right;points=[];portConstraint=eastwest;strokeColor=inherit;" parent="EZLeDql6kAfV6pXtA3XM-2" vertex="1">
          <mxGeometry y="26" width="160" height="8" as="geometry" />
        </mxCell>
        <mxCell id="EZLeDql6kAfV6pXtA3XM-5" value="+&amp;nbsp;&lt;span style=&quot;text-align: center;&quot;&gt;CalculationStrategy()&lt;/span&gt;" style="text;strokeColor=none;fillColor=none;align=left;verticalAlign=top;spacingLeft=4;spacingRight=4;overflow=hidden;rotatable=0;points=[[0,0.5],[1,0.5]];portConstraint=eastwest;whiteSpace=wrap;html=1;" parent="EZLeDql6kAfV6pXtA3XM-2" vertex="1">
          <mxGeometry y="34" width="160" height="26" as="geometry" />
        </mxCell>
        <mxCell id="EZLeDql6kAfV6pXtA3XM-6" value="&lt;i&gt;+ exec&lt;span style=&quot;text-align: center;&quot;&gt;(QString path)&lt;/span&gt;&lt;/i&gt;" style="text;strokeColor=none;fillColor=none;align=left;verticalAlign=top;spacingLeft=4;spacingRight=4;overflow=hidden;rotatable=0;points=[[0,0.5],[1,0.5]];portConstraint=eastwest;whiteSpace=wrap;html=1;" parent="EZLeDql6kAfV6pXtA3XM-2" vertex="1">
          <mxGeometry y="60" width="160" height="26" as="geometry" />
        </mxCell>
        <mxCell id="EZLeDql6kAfV6pXtA3XM-11" style="edgeStyle=orthogonalEdgeStyle;rounded=0;orthogonalLoop=1;jettySize=auto;html=1;endArrow=block;endFill=0;endSize=14;" parent="1" source="EZLeDql6kAfV6pXtA3XM-7" target="EZLeDql6kAfV6pXtA3XM-2" edge="1">
          <mxGeometry relative="1" as="geometry" />
        </mxCell>
        <mxCell id="EZLeDql6kAfV6pXtA3XM-7" value="ExtensionCalculationStrategy" style="swimlane;fontStyle=1;align=center;verticalAlign=top;childLayout=stackLayout;horizontal=1;startSize=26;horizontalStack=0;resizeParent=1;resizeParentMax=0;resizeLast=0;collapsible=1;marginBottom=0;whiteSpace=wrap;html=1;" parent="1" vertex="1">
          <mxGeometry x="617" y="554" width="535" height="116" as="geometry" />
        </mxCell>
        <mxCell id="EZLeDql6kAfV6pXtA3XM-9" value="" style="line;strokeWidth=1;fillColor=none;align=left;verticalAlign=middle;spacingTop=-1;spacingLeft=3;spacingRight=3;rotatable=0;labelPosition=right;points=[];portConstraint=eastwest;strokeColor=inherit;" parent="EZLeDql6kAfV6pXtA3XM-7" vertex="1">
          <mxGeometry y="26" width="535" height="8" as="geometry" />
        </mxCell>
        <mxCell id="6-FwHnSK7FdqYJPjmoRI-1" value="+&amp;nbsp;&lt;span style=&quot;text-align: center;&quot;&gt;ExtensionCalculationStrategy&lt;/span&gt;&lt;span style=&quot;text-align: center;&quot;&gt;()&lt;/span&gt;" style="text;strokeColor=none;fillColor=none;align=left;verticalAlign=top;spacingLeft=4;spacingRight=4;overflow=hidden;rotatable=0;points=[[0,0.5],[1,0.5]];portConstraint=eastwest;whiteSpace=wrap;html=1;" vertex="1" parent="EZLeDql6kAfV6pXtA3XM-7">
          <mxGeometry y="34" width="535" height="26" as="geometry" />
        </mxCell>
        <mxCell id="EZLeDql6kAfV6pXtA3XM-23" value="&lt;div style=&quot;&quot;&gt;&lt;span style=&quot;background-color: initial;&quot;&gt;+&amp;nbsp;&lt;/span&gt;&lt;span style=&quot;background-color: initial;&quot;&gt;exec(QString path) :&amp;nbsp;&lt;/span&gt;&lt;span style=&quot;background-color: initial;&quot;&gt;QMap&amp;lt;QString, quint64&amp;gt;&lt;/span&gt;&lt;/div&gt;" style="text;strokeColor=none;fillColor=none;align=left;verticalAlign=top;spacingLeft=4;spacingRight=4;overflow=hidden;rotatable=0;points=[[0,0.5],[1,0.5]];portConstraint=eastwest;whiteSpace=wrap;html=1;" parent="EZLeDql6kAfV6pXtA3XM-7" vertex="1">
          <mxGeometry y="60" width="535" height="26" as="geometry" />
        </mxCell>
        <mxCell id="EZLeDql6kAfV6pXtA3XM-10" value="- extensionCalculate(QString path, QMap&amp;lt;QString, quint64&amp;gt;&amp;amp; map) :&amp;nbsp;QMap&amp;lt;QString, quint64&amp;gt;" style="text;strokeColor=none;fillColor=none;align=left;verticalAlign=top;spacingLeft=4;spacingRight=4;overflow=hidden;rotatable=0;points=[[0,0.5],[1,0.5]];portConstraint=eastwest;whiteSpace=wrap;html=1;" parent="EZLeDql6kAfV6pXtA3XM-7" vertex="1">
          <mxGeometry y="86" width="535" height="30" as="geometry" />
        </mxCell>
        <mxCell id="EZLeDql6kAfV6pXtA3XM-12" value="FolderCalculationStrategy" style="swimlane;fontStyle=1;align=center;verticalAlign=top;childLayout=stackLayout;horizontal=1;startSize=26;horizontalStack=0;resizeParent=1;resizeParentMax=0;resizeLast=0;collapsible=1;marginBottom=0;whiteSpace=wrap;html=1;" parent="1" vertex="1">
          <mxGeometry x="272" y="554" width="275" height="138" as="geometry" />
        </mxCell>
        <mxCell id="EZLeDql6kAfV6pXtA3XM-14" value="" style="line;strokeWidth=1;fillColor=none;align=left;verticalAlign=middle;spacingTop=-1;spacingLeft=3;spacingRight=3;rotatable=0;labelPosition=right;points=[];portConstraint=eastwest;strokeColor=inherit;" parent="EZLeDql6kAfV6pXtA3XM-12" vertex="1">
          <mxGeometry y="26" width="275" height="8" as="geometry" />
        </mxCell>
        <mxCell id="EZLeDql6kAfV6pXtA3XM-22" value="+ Folder&lt;span style=&quot;text-align: center;&quot;&gt;CalculationStrategy()&lt;/span&gt;" style="text;strokeColor=none;fillColor=none;align=left;verticalAlign=top;spacingLeft=4;spacingRight=4;overflow=hidden;rotatable=0;points=[[0,0.5],[1,0.5]];portConstraint=eastwest;whiteSpace=wrap;html=1;" parent="EZLeDql6kAfV6pXtA3XM-12" vertex="1">
          <mxGeometry y="34" width="275" height="26" as="geometry" />
        </mxCell>
        <mxCell id="EZLeDql6kAfV6pXtA3XM-15" value="+ exec(QString path) : QMap&amp;lt;QString, quint64&amp;gt;" style="text;strokeColor=none;fillColor=none;align=left;verticalAlign=top;spacingLeft=4;spacingRight=4;overflow=hidden;rotatable=0;points=[[0,0.5],[1,0.5]];portConstraint=eastwest;whiteSpace=wrap;html=1;" parent="EZLeDql6kAfV6pXtA3XM-12" vertex="1">
          <mxGeometry y="60" width="275" height="26" as="geometry" />
        </mxCell>
        <mxCell id="6-FwHnSK7FdqYJPjmoRI-3" value="- getSizeOf(QString path) :&amp;nbsp;qint64" style="text;strokeColor=none;fillColor=none;align=left;verticalAlign=top;spacingLeft=4;spacingRight=4;overflow=hidden;rotatable=0;points=[[0,0.5],[1,0.5]];portConstraint=eastwest;whiteSpace=wrap;html=1;" vertex="1" parent="EZLeDql6kAfV6pXtA3XM-12">
          <mxGeometry y="86" width="275" height="26" as="geometry" />
        </mxCell>
        <mxCell id="6-FwHnSK7FdqYJPjmoRI-2" value="- getSizeOfFilesIn(QString path) : qint64" style="text;strokeColor=none;fillColor=none;align=left;verticalAlign=top;spacingLeft=4;spacingRight=4;overflow=hidden;rotatable=0;points=[[0,0.5],[1,0.5]];portConstraint=eastwest;whiteSpace=wrap;html=1;" vertex="1" parent="EZLeDql6kAfV6pXtA3XM-12">
          <mxGeometry y="112" width="275" height="26" as="geometry" />
        </mxCell>
        <mxCell id="EZLeDql6kAfV6pXtA3XM-16" style="edgeStyle=orthogonalEdgeStyle;rounded=0;orthogonalLoop=1;jettySize=auto;html=1;endArrow=block;endFill=0;endSize=14;" parent="1" source="EZLeDql6kAfV6pXtA3XM-12" target="EZLeDql6kAfV6pXtA3XM-2" edge="1">
          <mxGeometry relative="1" as="geometry">
            <mxPoint x="772" y="308" as="sourcePoint" />
            <mxPoint x="637" y="308" as="targetPoint" />
          </mxGeometry>
        </mxCell>
        <mxCell id="EZLeDql6kAfV6pXtA3XM-25" style="edgeStyle=orthogonalEdgeStyle;rounded=0;orthogonalLoop=1;jettySize=auto;html=1;endArrow=blockThin;endFill=1;startArrow=diamondThin;startFill=0;targetPerimeterSpacing=0;sourcePerimeterSpacing=0;startSize=20;endSize=10;" parent="1" source="EZLeDql6kAfV6pXtA3XM-17" target="EZLeDql6kAfV6pXtA3XM-2" edge="1">
          <mxGeometry relative="1" as="geometry" />
        </mxCell>
        <mxCell id="EZLeDql6kAfV6pXtA3XM-17" value="PercentCalculator" style="swimlane;fontStyle=1;align=center;verticalAlign=top;childLayout=stackLayout;horizontal=1;startSize=26;horizontalStack=0;resizeParent=1;resizeParentMax=0;resizeLast=0;collapsible=1;marginBottom=0;whiteSpace=wrap;html=1;" parent="1" vertex="1">
          <mxGeometry x="17" y="270" width="400" height="154" as="geometry" />
        </mxCell>
        <mxCell id="6-FwHnSK7FdqYJPjmoRI-5" value="-&amp;nbsp;m_strategy :&amp;nbsp;std::shared_ptr&amp;lt;CalculationStrategy&amp;gt;" style="text;strokeColor=none;fillColor=none;align=left;verticalAlign=top;spacingLeft=4;spacingRight=4;overflow=hidden;rotatable=0;points=[[0,0.5],[1,0.5]];portConstraint=eastwest;whiteSpace=wrap;html=1;" vertex="1" parent="EZLeDql6kAfV6pXtA3XM-17">
          <mxGeometry y="26" width="400" height="24" as="geometry" />
        </mxCell>
        <mxCell id="EZLeDql6kAfV6pXtA3XM-19" value="" style="line;strokeWidth=1;fillColor=none;align=left;verticalAlign=middle;spacingTop=-1;spacingLeft=3;spacingRight=3;rotatable=0;labelPosition=right;points=[];portConstraint=eastwest;strokeColor=inherit;" parent="EZLeDql6kAfV6pXtA3XM-17" vertex="1">
          <mxGeometry y="50" width="400" height="8" as="geometry" />
        </mxCell>
        <mxCell id="EZLeDql6kAfV6pXtA3XM-18" value="+ PercentCalculator(std::shared_ptr&amp;lt;CalculationStrategy&amp;gt; strategy = nullptr)" style="text;strokeColor=none;fillColor=none;align=left;verticalAlign=top;spacingLeft=4;spacingRight=4;overflow=hidden;rotatable=0;points=[[0,0.5],[1,0.5]];portConstraint=eastwest;whiteSpace=wrap;html=1;" parent="EZLeDql6kAfV6pXtA3XM-17" vertex="1">
          <mxGeometry y="58" width="400" height="44" as="geometry" />
        </mxCell>
        <mxCell id="EZLeDql6kAfV6pXtA3XM-26" value="+ void setStrategy(std::shared_ptr&amp;lt;CalculationStrategy&amp;gt;&amp;amp; strategy)" style="text;strokeColor=none;fillColor=none;align=left;verticalAlign=top;spacingLeft=4;spacingRight=4;overflow=hidden;rotatable=0;points=[[0,0.5],[1,0.5]];portConstraint=eastwest;whiteSpace=wrap;html=1;" parent="EZLeDql6kAfV6pXtA3XM-17" vertex="1">
          <mxGeometry y="102" width="400" height="26" as="geometry" />
        </mxCell>
        <mxCell id="6-FwHnSK7FdqYJPjmoRI-7" value="+ calculate(QString path) : QMap&amp;lt;QString, quint64&amp;gt;" style="text;strokeColor=none;fillColor=none;align=left;verticalAlign=top;spacingLeft=4;spacingRight=4;overflow=hidden;rotatable=0;points=[[0,0.5],[1,0.5]];portConstraint=eastwest;whiteSpace=wrap;html=1;" vertex="1" parent="EZLeDql6kAfV6pXtA3XM-17">
          <mxGeometry y="128" width="400" height="26" as="geometry" />
        </mxCell>
      </root>
    </mxGraphModel>
  </diagram>
</mxfile>
